<svg width="146" height="67" viewBox="0 0 146 67" fill="none" xmlns="http://www.w3.org/2000/svg">
<g clip-path="url(#clip0)">
<rect width="146" height="67" fill="#A3BCB6"/>
<rect x="6" y="12" width="130" height="43" fill="#3C403D"/>
<path d="M38.3744 20.0672C40.1408 20.0672 41.024 21.392 41.024 24.0416C41.024 25.7312 40.5632 27.68 39.6416 29.888C38.2976 33.0944 36.4736 35.5616 34.1696 37.2896C33.2864 37.9424 32.384 38.4416 31.4624 38.7872C30.5408 41.168 29.3792 42.9056 27.9776 44C29.8976 45.4208 31.2896 46.3424 32.1536 46.7648C33.0176 47.2064 33.8528 47.4272 34.6592 47.4272C36.0608 47.4272 36.9824 46.9376 37.424 45.9584C37.5584 45.6512 37.6256 45.3632 37.6256 45.0944C37.6256 44.8256 37.5488 44.5952 37.3952 44.4032C37.2608 44.2304 37.0976 44.144 36.9056 44.144C36.9632 43.9136 37.1072 43.7984 37.3376 43.7984C37.9904 43.7984 38.4224 44.1632 38.6336 44.8928C38.7104 45.1424 38.7488 45.3824 38.7488 45.6128C38.7488 46.1888 38.528 46.7264 38.0864 47.2256C37.472 47.9552 36.56 48.32 35.3504 48.32C33.8336 48.32 32.3744 47.8784 30.9728 46.9952C30.1856 46.5152 29.6096 46.1408 29.2448 45.872C28.8992 45.6032 28.2752 45.1232 27.3728 44.432C26.1824 45.1808 24.8672 45.5552 23.4272 45.5552C21.296 45.5552 19.9136 45.0176 19.28 43.9424C19.1072 43.616 19.0208 43.28 19.0208 42.9344C19.0208 42.5696 19.1744 42.1952 19.4816 41.8112C19.9616 41.216 20.6528 40.9184 21.5552 40.9184C22.9952 40.9184 24.7904 41.696 26.9408 43.2512C27.8048 42.368 28.5824 41.0528 29.2736 39.3056C29.0816 39.3248 28.8032 39.3344 28.4384 39.3344C25.3088 39.3344 23.0144 38.0864 21.5552 35.5904C20.672 34.0544 20.2304 32.3552 20.2304 30.4928C20.2304 29.8592 20.2784 29.216 20.3744 28.5632C20.72 26.1248 21.6224 24.2624 23.0816 22.976C24.08 22.1312 25.2128 21.7088 26.48 21.7088C27.7472 21.7088 28.7264 22.1216 29.4176 22.9472C30.1088 23.7728 30.4736 24.7904 30.512 26C30.512 26.1728 30.416 26.3168 30.224 26.432C30.032 26.528 29.84 26.5568 29.648 26.5184C29.456 26.4608 29.36 26.336 29.36 26.144C29.3216 24.992 29.0912 24.08 28.6688 23.408C28.2464 22.7168 27.488 22.3712 26.3936 22.3712C24.6656 22.3712 23.2736 23.3216 22.2176 25.2224C21.3728 26.72 20.9504 28.3712 20.9504 30.176C20.9504 33.4784 22.016 35.8688 24.1472 37.3472C25.3184 38.1728 26.7392 38.5856 28.4096 38.5856C28.7936 38.5856 29.1872 38.5568 29.5904 38.4992C30.032 37.3088 30.5024 35.7536 31.0016 33.8336C31.5008 31.8944 31.9424 30.2144 32.3264 28.7936C32.7296 27.3536 33.2 25.9232 33.7376 24.5024C34.8512 21.5456 36.3968 20.0672 38.3744 20.0672ZM38.0576 20.9024C36.7136 20.9024 35.6864 22.1984 34.976 24.7904C34.6304 26.0384 34.3232 27.3248 34.0544 28.6496C33.2672 32.7008 32.5376 35.7248 31.8656 37.7216C34.2272 36.512 36.1568 34.2464 37.6544 30.9248C38.864 28.2752 39.4592 25.8368 39.44 23.6096C39.3824 21.8432 38.9216 20.9408 38.0576 20.9024ZM26.4224 43.7408C24.5408 42.3392 22.9184 41.6384 21.5552 41.6384C20.6912 41.6384 20.144 41.9456 19.9136 42.56C19.664 43.1552 19.9232 43.7216 20.6912 44.2592C21.2672 44.6624 22.1408 44.864 23.312 44.864C24.4832 44.864 25.52 44.4896 26.4224 43.7408ZM50.7866 34.208C50.7866 37.0688 51.5834 38.4992 53.177 38.4992C53.1194 38.864 52.8026 39.0464 52.2266 39.0464C50.8442 39.0464 49.913 38.1728 49.433 36.4256C49.241 35.6768 49.145 34.7936 49.145 33.776C49.145 32.7392 49.3658 31.5008 49.8074 30.0608C50.6138 27.4688 51.8714 25.6544 53.5802 24.6176C54.425 24.0992 55.3274 23.84 56.2874 23.84C58.1306 23.84 59.2538 24.944 59.657 27.152C59.7722 27.7664 59.8298 28.4096 59.8298 29.0816C59.8298 30.9824 59.3786 33.1616 58.4762 35.6192C57.2474 39.0176 55.6154 41.6384 53.5802 43.4816C52.1018 44.8448 50.6042 45.5264 49.0874 45.5264C46.265 45.5264 44.3162 44.2208 43.241 41.6096C42.6842 40.2848 42.4058 38.8736 42.4058 37.376C42.4058 35.8592 42.5978 34.304 42.9818 32.7104C43.8266 29.1968 45.3434 26.2784 47.5322 23.9552C49.721 21.6128 52.169 20.4416 54.8762 20.4416C55.0298 20.4416 55.1546 20.4896 55.2506 20.5856C55.3466 20.6816 55.4042 20.8352 55.4234 21.0464C52.7738 21.0464 50.393 22.5344 48.281 25.5104C46.4186 28.1408 45.1994 31.2032 44.6234 34.6976C44.4314 35.8688 44.3354 36.9536 44.3354 37.952C44.3354 39.8912 44.729 41.5232 45.5162 42.848C46.3034 44.1728 47.5034 44.8352 49.1162 44.8352C51.2666 44.8352 53.3018 43.376 55.2218 40.4576C56.9114 37.8848 58.0634 34.9856 58.6778 31.76C58.9082 30.5696 59.0234 29.5232 59.0234 28.6208C59.0234 27.2 58.745 26.1248 58.1882 25.3952C57.7466 24.8768 57.1994 24.6176 56.5466 24.6176C54.8378 24.6176 53.417 25.7792 52.2842 28.1024C51.2858 30.1376 50.7866 32.1728 50.7866 34.208ZM41.3114 46.8224C41.4074 46.3616 41.705 46.1312 42.2042 46.1312C42.7034 46.1312 43.337 46.3232 44.105 46.7072C44.8922 47.1104 45.6314 47.5424 46.3226 48.0032C47.0138 48.464 47.849 48.8864 48.8282 49.2704C49.8266 49.6736 50.777 49.8752 51.6794 49.8752C53.465 49.8752 54.6458 49.3184 55.2218 48.2048C55.3946 47.8592 55.481 47.5424 55.481 47.2544C55.481 46.9664 55.3946 46.7072 55.2218 46.4768C55.0682 46.2848 54.8762 46.1792 54.6458 46.16C54.7418 45.7952 54.9818 45.6128 55.3658 45.6128C56.1146 45.6128 56.6138 46.0064 56.8634 46.7936C56.9594 47.0816 57.0074 47.36 57.0074 47.6288C57.0074 48.2624 56.7674 48.8768 56.2874 49.472C55.481 50.5088 54.185 51.0272 52.3994 51.0272C51.3434 51.0272 50.2586 50.8064 49.145 50.3648C48.0314 49.9232 47.0906 49.4432 46.3226 48.9248C44.249 47.5232 42.5786 46.8224 41.3114 46.8224ZM76.5664 48.7461H73.9473V18.4062H76.5664V48.7461ZM102.301 26.9375V38.5391C102.293 40.1484 101.785 41.4648 100.777 42.4883C99.7773 43.5117 98.418 44.0859 96.6992 44.2109L96.1016 44.2344C94.2344 44.2344 92.7461 43.7305 91.6367 42.7227C90.5273 41.7148 89.9648 40.3281 89.9492 38.5625V26.9375H92.1758V38.4922C92.1758 39.7266 92.5156 40.6875 93.1953 41.375C93.875 42.0547 94.8438 42.3945 96.1016 42.3945C97.375 42.3945 98.3477 42.0547 99.0195 41.375C99.6992 40.6953 100.039 39.7383 100.039 38.5039V26.9375H102.301ZM111.418 33.4766L115.508 26.9375H118.156L112.766 35.3984L118.285 44H115.613L111.418 37.3438L107.199 44H104.539L110.07 35.3984L104.668 26.9375H107.305L111.418 33.4766Z" fill="white"/>
</g>
<defs>
<clipPath id="clip0">
<rect width="146" height="67" fill="white"/>
</clipPath>
</defs>
</svg>
