<svg width="78" height="76" viewBox="0 0 78 76" fill="none" xmlns="http://www.w3.org/2000/svg">
<g clip-path="url(#clip0)">
<rect width="78" height="76" fill="white"/>
<rect y="-2" width="78" height="78" fill="#A3BCB6"/>
<path d="M36.52 5.76C38.9733 5.76 40.2 7.6 40.2 11.28C40.2 13.6267 39.56 16.3333 38.28 19.4C36.4133 23.8533 33.88 27.28 30.68 29.68C29.4533 30.5867 28.2 31.28 26.92 31.76C25.64 35.0667 24.0267 37.48 22.08 39C24.7467 40.9733 26.68 42.2533 27.88 42.84C29.08 43.4533 30.24 43.76 31.36 43.76C33.3067 43.76 34.5867 43.08 35.2 41.72C35.3867 41.2933 35.48 40.8933 35.48 40.52C35.48 40.1467 35.3733 39.8267 35.16 39.56C34.9733 39.32 34.7467 39.2 34.48 39.2C34.56 38.88 34.76 38.72 35.08 38.72C35.9867 38.72 36.5867 39.2267 36.88 40.24C36.9867 40.5867 37.04 40.92 37.04 41.24C37.04 42.04 36.7333 42.7867 36.12 43.48C35.2667 44.4933 34 45 32.32 45C30.2133 45 28.1867 44.3867 26.24 43.16C25.1467 42.4933 24.3467 41.9733 23.84 41.6C23.36 41.2267 22.4933 40.56 21.24 39.6C19.5867 40.64 17.76 41.16 15.76 41.16C12.8 41.16 10.88 40.4133 10 38.92C9.76 38.4667 9.64 38 9.64 37.52C9.64 37.0133 9.85333 36.4933 10.28 35.96C10.9467 35.1333 11.9067 34.72 13.16 34.72C15.16 34.72 17.6533 35.8 20.64 37.96C21.84 36.7333 22.92 34.9067 23.88 32.48C23.6133 32.5067 23.2267 32.52 22.72 32.52C18.3733 32.52 15.1867 30.7867 13.16 27.32C11.9333 25.1867 11.32 22.8267 11.32 20.24C11.32 19.36 11.3867 18.4667 11.52 17.56C12 14.1733 13.2533 11.5867 15.28 9.8C16.6667 8.62667 18.24 8.04 20 8.04C21.76 8.04 23.12 8.61333 24.08 9.76C25.04 10.9067 25.5467 12.32 25.6 14C25.6 14.24 25.4667 14.44 25.2 14.6C24.9333 14.7333 24.6667 14.7733 24.4 14.72C24.1333 14.64 24 14.4667 24 14.2C23.9467 12.6 23.6267 11.3333 23.04 10.4C22.4533 9.44 21.4 8.96 19.88 8.96C17.48 8.96 15.5467 10.28 14.08 12.92C12.9067 15 12.32 17.2933 12.32 19.8C12.32 24.3867 13.8 27.7067 16.76 29.76C18.3867 30.9067 20.36 31.48 22.68 31.48C23.2133 31.48 23.76 31.44 24.32 31.36C24.9333 29.7067 25.5867 27.5467 26.28 24.88C26.9733 22.1867 27.5867 19.8533 28.12 17.88C28.68 15.88 29.3333 13.8933 30.08 11.92C31.6267 7.81333 33.7733 5.76 36.52 5.76ZM36.08 6.92C34.2133 6.92 32.7867 8.72 31.8 12.32C31.32 14.0533 30.8933 15.84 30.52 17.68C29.4267 23.3067 28.4133 27.5067 27.48 30.28C30.76 28.6 33.44 25.4533 35.52 20.84C37.2 17.16 38.0267 13.7733 38 10.68C37.92 8.22667 37.28 6.97333 36.08 6.92ZM19.92 38.64C17.3067 36.6933 15.0533 35.72 13.16 35.72C11.96 35.72 11.2 36.1467 10.88 37C10.5333 37.8267 10.8933 38.6133 11.96 39.36C12.76 39.92 13.9733 40.2 15.6 40.2C17.2267 40.2 18.6667 39.68 19.92 38.64Z" fill="white"/>
<path d="M52.56 47.4C52.56 51.3733 53.6667 53.36 55.88 53.36C55.8 53.8667 55.36 54.12 54.56 54.12C52.64 54.12 51.3467 52.9067 50.68 50.48C50.4133 49.44 50.28 48.2133 50.28 46.8C50.28 45.36 50.5867 43.64 51.2 41.64C52.32 38.04 54.0667 35.52 56.44 34.08C57.6133 33.36 58.8667 33 60.2 33C62.76 33 64.32 34.5333 64.88 37.6C65.04 38.4533 65.12 39.3467 65.12 40.28C65.12 42.92 64.4933 45.9467 63.24 49.36C61.5333 54.08 59.2667 57.72 56.44 60.28C54.3867 62.1733 52.3067 63.12 50.2 63.12C46.28 63.12 43.5733 61.3067 42.08 57.68C41.3067 55.84 40.92 53.88 40.92 51.8C40.92 49.6933 41.1867 47.5333 41.72 45.32C42.8933 40.44 45 36.3867 48.04 33.16C51.08 29.9067 54.48 28.28 58.24 28.28C58.4533 28.28 58.6267 28.3467 58.76 28.48C58.8933 28.6133 58.9733 28.8267 59 29.12C55.32 29.12 52.0133 31.1867 49.08 35.32C46.4933 38.9733 44.8 43.2267 44 48.08C43.7333 49.7067 43.6 51.2133 43.6 52.6C43.6 55.2933 44.1467 57.56 45.24 59.4C46.3333 61.24 48 62.16 50.24 62.16C53.2267 62.16 56.0533 60.1333 58.72 56.08C61.0667 52.5067 62.6667 48.48 63.52 44C63.84 42.3467 64 40.8933 64 39.64C64 37.6667 63.6133 36.1733 62.84 35.16C62.2267 34.44 61.4667 34.08 60.56 34.08C58.1867 34.08 56.2133 35.6933 54.64 38.92C53.2533 41.7467 52.56 44.5733 52.56 47.4ZM39.4 64.92C39.5333 64.28 39.9467 63.96 40.64 63.96C41.3333 63.96 42.2133 64.2267 43.28 64.76C44.3733 65.32 45.4 65.92 46.36 66.56C47.32 67.2 48.48 67.7867 49.84 68.32C51.2267 68.88 52.5467 69.16 53.8 69.16C56.28 69.16 57.92 68.3867 58.72 66.84C58.96 66.36 59.08 65.92 59.08 65.52C59.08 65.12 58.96 64.76 58.72 64.44C58.5067 64.1733 58.24 64.0267 57.92 64C58.0533 63.4933 58.3867 63.24 58.92 63.24C59.96 63.24 60.6533 63.7867 61 64.88C61.1333 65.28 61.2 65.6667 61.2 66.04C61.2 66.92 60.8667 67.7733 60.2 68.6C59.08 70.04 57.28 70.76 54.8 70.76C53.3333 70.76 51.8267 70.4533 50.28 69.84C48.7333 69.2267 47.4267 68.56 46.36 67.84C43.48 65.8933 41.16 64.92 39.4 64.92Z" fill="white"/>
</g>
<defs>
<clipPath id="clip0">
<rect width="78" height="76" fill="white"/>
</clipPath>
</defs>
</svg>
